<?xml version="1.0" encoding="utf-8"?>
<!-- Generator: Adobe Illustrator 22.0.1, SVG Export Plug-In . SVG Version: 6.00 Build 0)  -->
<svg version="1.1" id="Calque_1" xmlns="http://www.w3.org/2000/svg" xmlns:xlink="http://www.w3.org/1999/xlink" x="0px" y="0px"
	 viewBox="0 0 900 450" style="enable-background:new 0 0 900 450;" xml:space="preserve">
<style type="text/css">
	.st0{fill:#FFFFFF;}
</style>
<g>
	<g>
		<g>
			<g>
				
					<rect x="444.2" y="231.9" transform="matrix(0.7071 -0.7071 0.7071 0.7071 -39.9193 385.7083)" class="st0" width="2.9" height="18.2"/>
			</g>
			<g>
				<path class="st0" d="M431.3,215.4c-3.3,0-6.1-2.7-6.1-6.1s2.7-6.1,6.1-6.1c3.3,0,6.1,2.7,6.1,6.1S434.7,215.4,431.3,215.4z
					 M431.3,206.2c-1.7,0-3.1,1.4-3.1,3.1c0,1.7,1.4,3.1,3.1,3.1c1.7,0,3.1-1.4,3.1-3.1C434.5,207.6,433.1,206.2,431.3,206.2z"/>
			</g>
			<g>
				<g>
					<rect x="489.7" y="244.1" class="st0" width="2.9" height="8"/>
				</g>
				<g>
					<rect x="407.4" y="247.1" class="st0" width="2.9" height="4.9"/>
				</g>
				<g>
					<path class="st0" d="M407.4,250.7v-54.3h85.2v51.2L460.8,215L439.5,237l-9.3-9.6L407.4,250.7z M410.3,199.4v44.2l19.8-20.3
						l9.3,9.6l21.4-21.9l28.9,29.6v-41.1H410.3z"/>
				</g>
				<g>
					<path class="st0" d="M492.6,253.5h-85.2v-7l22.7-23.3l9.3,9.6l21.4-21.9l31.8,32.6V253.5z M410.3,250.6h79.4v-5.9L460.8,215
						L439.5,237l-9.3-9.6l-19.8,20.3V250.6z"/>
				</g>
			</g>
		</g>
	</g>
	<g>
		<path class="st0" d="M21.6,226c-0.3,0-0.5-0.1-0.7-0.3c-0.4-0.4-0.3-1,0.1-1.4l24.5-22.2c0.4-0.4,1-0.3,1.4,0.1
			c0.4,0.4,0.3,1-0.1,1.4l-24.5,22.2C22.1,225.9,21.9,226,21.6,226z"/>
		<path class="st0" d="M46.1,248.1c-0.2,0-0.5-0.1-0.6-0.2L21,225.7c-0.4-0.4-0.4-1-0.1-1.4c0.4-0.4,1-0.4,1.4-0.1l24.5,22.2
			c0.4,0.4,0.4,1,0.1,1.4C46.6,248,46.4,248.1,46.1,248.1z"/>
	</g>
	<g>
		<path class="st0" d="M878.4,226c-0.2,0-0.5-0.1-0.6-0.2l-24.5-22.2c-0.4-0.4-0.4-1-0.1-1.4c0.4-0.4,1-0.4,1.4-0.1l24.5,22.2
			c0.4,0.4,0.4,1,0.1,1.4C878.9,225.9,878.6,226,878.4,226z"/>
		<path class="st0" d="M853.9,248.1c-0.3,0-0.5-0.1-0.7-0.3c-0.4-0.4-0.3-1,0.1-1.4l24.5-22.2c0.4-0.4,1-0.3,1.4,0.1
			c0.4,0.4,0.3,1-0.1,1.4l-24.5,22.2C854.4,248,854.1,248.1,853.9,248.1z"/>
	</g>
</g>
</svg>
