<?xml version="1.0" encoding="utf-8"?>
<!-- Generator: Adobe Illustrator 22.0.1, SVG Export Plug-In . SVG Version: 6.00 Build 0)  -->
<svg version="1.1" id="Calque_1" xmlns="http://www.w3.org/2000/svg" xmlns:xlink="http://www.w3.org/1999/xlink" x="0px" y="0px"
	 viewBox="0 0 96 96" style="enable-background:new 0 0 96 96;" xml:space="preserve">
<style type="text/css">
	.st0{fill:url(#SVGID_1_);}
</style>
<linearGradient id="SVGID_1_" gradientUnits="userSpaceOnUse" x1="45.8983" y1="89.7787" x2="56.301" y2="19.4076">
	<stop  offset="0" style="stop-color:#710913"/>
	<stop  offset="0.5005" style="stop-color:#9D2524"/>
	<stop  offset="1" style="stop-color:#CC3B30"/>
</linearGradient>
<path class="st0" d="M75.5,3.8c-3.6,0.7-36.3,7.9-38.1,8.3c-2.2,0.5-4,2.5-4,4.4v47.6c0,2.7-0.1,3.6-2.3,4.3
	c-0.3,0.1-0.6,0.1-1.1,0.2c-3.8,0.8-12.6,2.6-14.4,8.4c-1,3.2-1.2,7.8,1.4,11.3c1.4,1.9,4,4,9,4c0.5,0,0.9,0,1.4-0.1
	c10.5-0.8,12.8-9.8,12.8-13.1c0-0.9,0-3.4,0.1-5.1h0V45.4c0-3.7,0.1-4.4,1.5-4.7c3-0.7,29.5-6.4,30.8-6.6c0.3-0.1,1-0.2,1.2,0
	c0.1,0.1,0.3,0.4,0.3,1.8v19.8c0,2.7-0.1,3.6-2.3,4.3c-0.3,0.1-0.6,0.1-1.1,0.2c-3.8,0.8-12.6,2.6-14.4,8.4c-1,3.2-1.2,7.8,1.4,11.3
	c1.5,2,4.5,4.4,10.4,3.9C78.6,83,80.9,74,80.9,70.7c0-1.5,0.1-7.3,0.1-7.3V8.1c0-1.6-0.4-2.8-1.3-3.6C78.8,3.7,77.4,3.5,75.5,3.8z
	 M74.2,20.3c0,3.7-0.1,4.4-1.5,4.7c-3,0.7-29.4,6.4-30.8,6.6c-0.3,0-1,0.2-1.2,0c-0.1-0.1-0.3-0.4-0.3-1.8v-4.4
	c0-3.7,0.1-4.4,1.5-4.7c3-0.7,29.5-6.4,30.8-6.6c0.2,0,0.5-0.1,0.8-0.1c0.2,0,0.3,0,0.4,0.1c0.1,0.1,0.3,0.4,0.3,1.8V20.3z"/>
</svg>
