<?xml version="1.0" encoding="utf-8"?>
<!-- Generator: Adobe Illustrator 22.0.1, SVG Export Plug-In . SVG Version: 6.00 Build 0)  -->
<svg version="1.1" id="Calque_1" xmlns="http://www.w3.org/2000/svg" xmlns:xlink="http://www.w3.org/1999/xlink" x="0px" y="0px"
	 viewBox="0 0 230 50" style="enable-background:new 0 0 230 50;" xml:space="preserve">
<style type="text/css">
	.st0{fill:url(#SVGID_1_);}
	.st1{fill:url(#SVGID_2_);}
	.st2{fill:url(#SVGID_3_);}
	.st3{fill:url(#SVGID_4_);}
	.st4{fill:url(#SVGID_5_);}
	.st5{fill:url(#SVGID_6_);}
	.st6{fill:url(#SVGID_7_);}
	.st7{fill:url(#SVGID_8_);}
</style>
<g>
	<g>
		<linearGradient id="SVGID_1_" gradientUnits="userSpaceOnUse" x1="18.171" y1="25.1053" x2="24.0728" y2="-7.1018">
			<stop  offset="0" style="stop-color:#221B1A"/>
			<stop  offset="1" style="stop-color:#6D605E"/>
		</linearGradient>
		<polygon class="st0" points="30.9,7.7 18.7,28.6 6.3,7.7 2.8,7.7 2.8,37.4 6.9,37.4 6.9,15.9 17.6,33.8 19.6,33.8 30.4,15.8 
			30.4,37.4 34.5,37.4 34.4,7.7 		"/>
		<linearGradient id="SVGID_2_" gradientUnits="userSpaceOnUse" x1="53.0751" y1="31.5014" x2="58.9769" y2="-0.7057">
			<stop  offset="0" style="stop-color:#221B1A"/>
			<stop  offset="1" style="stop-color:#6D605E"/>
		</linearGradient>
		<path class="st1" d="M64.2,24.4c0,6.6-3.1,9.6-8.4,9.6s-8.4-3-8.4-9.6V7.7h-4.3v16.9c0,8.6,4.8,13.2,12.6,13.2
			c7.9,0,12.6-4.5,12.6-13.2V7.7h-4.1V24.4z"/>
		<linearGradient id="SVGID_3_" gradientUnits="userSpaceOnUse" x1="83.4436" y1="37.0663" x2="89.3454" y2="4.8592">
			<stop  offset="0" style="stop-color:#221B1A"/>
			<stop  offset="1" style="stop-color:#6D605E"/>
		</linearGradient>
		<path class="st2" d="M79.2,15.7c0-2.6,2.2-4.7,7.2-4.7c2.6,0,5.6,0.8,8.2,2.4L96,10c-2.5-1.7-6.1-2.6-9.6-2.6
			c-7.8,0-11.4,3.9-11.4,8.5c0,11.1,18,6.5,18,13.7c0,2.6-2.2,4.6-7.4,4.6c-3.8,0-7.6-1.4-9.8-3.4L74.3,34c2.4,2.2,6.8,3.7,11.4,3.7
			c7.9,0,11.5-3.9,11.5-8.5C97.2,18.4,79.2,22.9,79.2,15.7z"/>
		<linearGradient id="SVGID_4_" gradientUnits="userSpaceOnUse" x1="102.2292" y1="40.5087" x2="108.131" y2="8.3015">
			<stop  offset="0" style="stop-color:#221B1A"/>
			<stop  offset="1" style="stop-color:#6D605E"/>
		</linearGradient>
		<rect x="103.4" y="7.7" class="st3" width="4.3" height="29.8"/>
		<linearGradient id="SVGID_5_" gradientUnits="userSpaceOnUse" x1="124.4754" y1="44.5852" x2="130.3772" y2="12.3781">
			<stop  offset="0" style="stop-color:#221B1A"/>
			<stop  offset="1" style="stop-color:#6D605E"/>
		</linearGradient>
		<path class="st4" d="M130.1,34c-6.7,0-11.7-4.8-11.7-11.4c0-6.6,5-11.4,11.7-11.4c3.3,0,6.1,1.1,8.4,3.5l2.8-2.7
			c-2.7-3.1-6.7-4.6-11.3-4.6c-9.1,0-15.8,6.4-15.8,15.2c0,8.8,6.7,15.2,15.7,15.2c4.6,0,8.6-1.6,11.4-4.7l-2.8-2.7
			C136.2,32.8,133.4,34,130.1,34z"/>
	</g>
	<g>
		<linearGradient id="SVGID_6_" gradientUnits="userSpaceOnUse" x1="187.3199" y1="52.6717" x2="193.0531" y2="13.8883">
			<stop  offset="0" style="stop-color:#710913"/>
			<stop  offset="1" style="stop-color:#CC3B30"/>
		</linearGradient>
		<polygon class="st5" points="185.8,7.7 181.6,7.7 181.6,37.4 202,37.4 202,33.7 185.8,33.7 		"/>
		<linearGradient id="SVGID_7_" gradientUnits="userSpaceOnUse" x1="212.024" y1="56.3236" x2="217.7572" y2="17.5402">
			<stop  offset="0" style="stop-color:#710913"/>
			<stop  offset="1" style="stop-color:#CC3B30"/>
		</linearGradient>
		<polygon class="st6" points="211.1,33.7 211.1,7.7 206.8,7.7 206.8,37.4 227.2,37.4 227.2,33.7 		"/>
		<linearGradient id="SVGID_8_" gradientUnits="userSpaceOnUse" x1="155.8889" y1="48.0254" x2="161.6221" y2="9.2419">
			<stop  offset="0" style="stop-color:#710913"/>
			<stop  offset="0.5005" style="stop-color:#9D2524"/>
			<stop  offset="1" style="stop-color:#CC3B30"/>
		</linearGradient>
		<path class="st7" d="M172.2,0.7c-2,0.4-20,4.3-21,4.6c-1.2,0.3-2.2,1.4-2.2,2.4v26.2c0,1.5-0.1,2-1.3,2.4c-0.1,0-0.4,0.1-0.6,0.1
			c-2.1,0.4-6.9,1.4-7.9,4.6c-0.5,1.8-0.6,4.3,0.7,6.2c0.8,1,2.2,2.2,5,2.2c0.3,0,0.5,0,0.8,0c5.8-0.4,7.1-5.4,7.1-7.2
			c0-0.5,0-1.9,0-2.8h0V23.6c0-2,0.1-2.4,0.8-2.6c1.6-0.4,16.2-3.5,17-3.6c0.2,0,0.6-0.1,0.7,0c0,0,0.2,0.2,0.2,1v10.9
			c0,1.5-0.1,2-1.3,2.4c-0.1,0-0.4,0.1-0.6,0.1c-2.1,0.4-6.9,1.4-7.9,4.6c-0.5,1.8-0.6,4.3,0.7,6.2c0.8,1.1,2.5,2.4,5.7,2.2
			c5.8-0.4,7.1-5.4,7.1-7.2c0-0.9,0.1-4,0.1-4.1V3c0-0.9-0.2-1.6-0.7-2C174,0.6,173.2,0.5,172.2,0.7z M171.5,9.8
			c0,2-0.1,2.4-0.8,2.6c-1.6,0.4-16.2,3.5-17,3.6c-0.2,0-0.6,0.1-0.7,0c0,0-0.2-0.2-0.2-1v-2.4c0-2,0.1-2.4,0.8-2.6
			c1.6-0.4,16.2-3.5,17-3.6c0.1,0,0.3,0,0.4,0c0.1,0,0.2,0,0.2,0c0,0,0.2,0.2,0.2,1V9.8z"/>
	</g>
</g>
</svg>
