<?xml version="1.0" encoding="utf-8"?>
<!-- Generator: Adobe Illustrator 22.0.1, SVG Export Plug-In . SVG Version: 6.00 Build 0)  -->
<svg version="1.1" id="Calque_1" xmlns="http://www.w3.org/2000/svg" xmlns:xlink="http://www.w3.org/1999/xlink" x="0px" y="0px"
	 viewBox="0 0 50 50" style="enable-background:new 0 0 50 50;" xml:space="preserve">
<style type="text/css">
	.st0{fill:#FFFFFF;}
</style>
<g>
	<g>
		<path class="st0" d="M43.2,22.5C43.2,11.2,34,2,22.7,2C11.4,2,2.2,11.2,2.2,22.5C2.2,33.8,11.4,43,22.7,43
			C34,43,43.2,33.8,43.2,22.5z M22.7,41C12.5,41,4.2,32.7,4.2,22.5C4.2,12.3,12.5,4,22.7,4c10.2,0,18.5,8.3,18.5,18.5
			C41.2,32.7,32.9,41,22.7,41z"/>
		<rect x="41.4" y="36" transform="matrix(0.711 -0.7032 0.7032 0.711 -17.6922 42.1306)" class="st0" width="2" height="13.2"/>
	</g>
	<path class="st0" d="M22.2,27.1c-0.5,0-1,0.1-1.5,0.2c-2.4,0.7-4.4,2.7-4.4,4.5c0,1.4,1.3,1.9,2.5,1.9c0.5,0,1-0.1,1.5-0.2
		c2.4-0.7,4.4-2.7,4.4-4.5V18.4l0.6,0c3.4-0.2,4.4,2.1,5.2,4.1c0,0.1,0.1,0.1,0.1,0.2l0.5-0.5c-0.4-5.4-1.5-11.2-5.9-14.3l-2.1,0.4
		v18.8l-0.6,0C22.4,27.1,22.3,27.1,22.2,27.1z"/>
</g>
</svg>
