<?xml version="1.0" encoding="utf-8"?>
<!-- Generator: Adobe Illustrator 22.0.1, SVG Export Plug-In . SVG Version: 6.00 Build 0)  -->
<svg version="1.1" id="Calque_1" xmlns="http://www.w3.org/2000/svg" xmlns:xlink="http://www.w3.org/1999/xlink" x="0px" y="0px"
	 viewBox="0 0 50 50" style="enable-background:new 0 0 50 50;" xml:space="preserve">
<style type="text/css">
	.st0{opacity:0.75;}
	.st1{fill:#FFFFFF;}
</style>
<g class="st0">
	<path class="st1" d="M44.2,5.7h-3.4V4.3c0-1.4-1.1-2.5-2.5-2.5s-2.5,1.1-2.5,2.5v1.3H14.2V4.3c0-1.4-1.1-2.5-2.5-2.5
		S9.2,2.9,9.2,4.3v1.3H5.8c-1.4,0-2.5,1.1-2.5,2.5v37.4c0,1.4,1.1,2.5,2.5,2.5h38.4c1.4,0,2.5-1.1,2.5-2.5V8.2
		C46.8,6.8,45.6,5.7,44.2,5.7z M37.3,4.3c0-0.5,0.4-1,1-1c0.5,0,1,0.4,1,1v1.3v0.8v2.8c0,0.5-0.4,1-1,1c-0.5,0-1-0.4-1-1V6.4V5.7
		V4.3z M10.7,4.3c0-0.5,0.4-1,1-1c0.5,0,1,0.4,1,1v1.3v0.8v2.8c0,0.5-0.4,1-1,1c-0.5,0-1-0.4-1-1V6.4V5.7V4.3z M5.8,7.2h3.4v2
		c0,1.4,1.1,2.5,2.5,2.5s2.5-1.1,2.5-2.5v-2h21.6v2c0,1.4,1.1,2.5,2.5,2.5s2.5-1.1,2.5-2.5v-2h3.4c0.6,0,1,0.5,1,1v7.3H4.8V8.2
		C4.8,7.7,5.2,7.2,5.8,7.2z M44.2,46.7H5.8c-0.6,0-1-0.5-1-1V17.1h40.5v28.6C45.2,46.2,44.8,46.7,44.2,46.7z"/>
	<path class="st1" d="M13.3,24h-1c-0.7,0-1.3,0.6-1.3,1.3s0.6,1.3,1.3,1.3h1c0.7,0,1.3-0.6,1.3-1.3S14,24,13.3,24z"/>
	<path class="st1" d="M21.7,24h-1c-0.7,0-1.3,0.6-1.3,1.3s0.6,1.3,1.3,1.3h1c0.7,0,1.3-0.6,1.3-1.3S22.4,24,21.7,24z"/>
	<path class="st1" d="M30,24h-1c-0.7,0-1.3,0.6-1.3,1.3s0.6,1.3,1.3,1.3h1c0.7,0,1.3-0.6,1.3-1.3S30.7,24,30,24z"/>
	<path class="st1" d="M38.4,24h-1c-0.7,0-1.3,0.6-1.3,1.3s0.6,1.3,1.3,1.3h1c0.7,0,1.3-0.6,1.3-1.3S39.1,24,38.4,24z"/>
	<path class="st1" d="M13.3,30h-1c-0.7,0-1.3,0.6-1.3,1.3s0.6,1.3,1.3,1.3h1c0.7,0,1.3-0.6,1.3-1.3S14,30,13.3,30z"/>
	<path class="st1" d="M21.7,30h-1c-0.7,0-1.3,0.6-1.3,1.3s0.6,1.3,1.3,1.3h1c0.7,0,1.3-0.6,1.3-1.3S22.4,30,21.7,30z"/>
	<path class="st1" d="M30,30h-1c-0.7,0-1.3,0.6-1.3,1.3s0.6,1.3,1.3,1.3h1c0.7,0,1.3-0.6,1.3-1.3S30.7,30,30,30z"/>
	<path class="st1" d="M38.4,30h-1c-0.7,0-1.3,0.6-1.3,1.3s0.6,1.3,1.3,1.3h1c0.7,0,1.3-0.6,1.3-1.3S39.1,30,38.4,30z"/>
	<path class="st1" d="M13.3,36h-1c-0.7,0-1.3,0.6-1.3,1.3s0.6,1.3,1.3,1.3h1c0.7,0,1.3-0.6,1.3-1.3S14,36,13.3,36z"/>
	<path class="st1" d="M21.7,36h-1c-0.7,0-1.3,0.6-1.3,1.3s0.6,1.3,1.3,1.3h1c0.7,0,1.3-0.6,1.3-1.3S22.4,36,21.7,36z"/>
	<path class="st1" d="M30,36h-1c-0.7,0-1.3,0.6-1.3,1.3s0.6,1.3,1.3,1.3h1c0.7,0,1.3-0.6,1.3-1.3S30.7,36,30,36z"/>
</g>
</svg>
