<?xml version="1.0" encoding="utf-8"?>
<!-- Generator: Adobe Illustrator 22.0.1, SVG Export Plug-In . SVG Version: 6.00 Build 0)  -->
<svg version="1.1" id="Calque_1" xmlns="http://www.w3.org/2000/svg" xmlns:xlink="http://www.w3.org/1999/xlink" x="0px" y="0px"
	 viewBox="0 0 50 50" style="enable-background:new 0 0 50 50;" xml:space="preserve">
<style type="text/css">
	.st0{fill:#FFFFFF;}
</style>
<g id="surface1_11_">
	<path class="st0" d="M37.2,2.9h-3.5l-0.3,2.5c-1.9,0.4-3.6,1.4-4.9,2.8l-2.3-1.1l-1.7,3l2.1,1.5c-0.3,0.9-0.4,1.8-0.4,2.8
		s0.2,1.9,0.4,2.8l-2.1,1.5l1.7,3l2.3-1.1c1.3,1.4,3,2.4,4.9,2.8l0.3,2.5h3.5l0.3-2.5c1.9-0.4,3.6-1.4,4.9-2.8l2.3,1.1l1.7-3
		l-2.1-1.5c0.3-0.9,0.4-1.8,0.4-2.8s-0.2-1.9-0.4-2.8l2.1-1.5l-1.7-3l-2.3,1.1c-1.3-1.4-3-2.4-4.9-2.8L37.2,2.9z M35.4,19.2
		c-2.6,0-4.7-2.1-4.7-4.7c0-2.6,2.1-4.7,4.7-4.7c2.6,0,4.7,2.1,4.7,4.7C40.1,17.1,38,19.2,35.4,19.2z"/>
	<path class="st0" d="M19.7,18h-4.7l-0.4,3.8c-2,0.5-3.8,1.6-5.2,3L6,23.3l-2.3,4l3.1,2.2c-0.3,1-0.4,2-0.4,3c0,1,0.2,2,0.4,3
		l-3.1,2.2l2.3,4l3.5-1.6c1.4,1.4,3.2,2.5,5.2,3l0.4,3.8h4.7l0.4-3.8c2-0.5,3.8-1.6,5.2-3l3.5,1.6l2.3-4L28,35.6c0.3-1,0.4-2,0.4-3
		c0-1-0.2-2-0.4-3l3.1-2.2l-2.3-4l-3.5,1.6c-1.4-1.4-3.2-2.5-5.2-3L19.7,18z M17.4,37.8c-2.9,0-5.2-2.3-5.2-5.2
		c0-2.9,2.3-5.2,5.2-5.2s5.2,2.3,5.2,5.2C22.6,35.5,20.3,37.8,17.4,37.8z"/>
</g>
</svg>
