<?xml version="1.0" encoding="utf-8"?>
<!-- Generator: Adobe Illustrator 22.0.1, SVG Export Plug-In . SVG Version: 6.00 Build 0)  -->
<svg version="1.1" id="Calque_1" xmlns="http://www.w3.org/2000/svg" xmlns:xlink="http://www.w3.org/1999/xlink" x="0px" y="0px"
	 viewBox="0 0 50 50" style="enable-background:new 0 0 50 50;" xml:space="preserve">
<style type="text/css">
	.st0{fill:#CD3E2E;}
	.st1{fill:#710B14;}
	.st2{fill:#6D605F;}
</style>
<g>
	<g>
		<path class="st0" d="M45.4,22.8c0-0.1,0-0.3-0.1-0.4c-0.1-0.5-0.1-1.1-0.3-1.6c0-0.1,0-0.1-0.1-0.2C43.8,14.7,40,9.8,34.9,7
			c-0.1,0-0.1-0.1-0.2-0.1c-0.5-0.3-1-0.5-1.5-0.7C33,6.1,32.8,6,32.6,6c-0.4-0.2-0.8-0.3-1.3-0.5c-0.2-0.1-0.5-0.2-0.8-0.2
			c-0.3-0.1-0.7-0.2-1-0.3c-0.2-0.1-0.4-0.1-0.7-0.2c-0.5-0.1-1-0.2-1.5-0.2c-0.2,0-0.4,0-0.6-0.1c-0.5,0-1.1-0.1-1.7-0.1
			c-0.2,0-0.4,0-0.5,0c-0.5,0-1.1,0-1.6,0.1c-0.1,0-0.1,0-0.2,0c-4.7,0.5-9,2.6-12.4,6c-0.2,0.2-0.4,0.5-0.6,0.7
			c-0.2,0.3-0.5,0.5-0.7,0.8c-0.1,0.2-0.2,0.3-0.4,0.5C8.3,13,8,13.4,7.8,13.8c0,0.1-0.1,0.1-0.1,0.2c-4,6.2-4.2,14.1-0.9,20.6
			c0,0,0,0,0,0c0.3,0.5,0.6,1,0.9,1.5c0.1,0.1,0.1,0.2,0.2,0.3c0.3,0.4,0.6,0.8,0.9,1.2C8.9,37.7,9,37.9,9.1,38
			c0.1,0.2,0.3,0.3,0.4,0.5c3.6-2.9,8.6-4.8,10.5-5.2c0.1-0.2,0.2-0.8,0.3-1.3c-0.7-0.8-2.5-3-3.1-5.8c-0.7-0.3-1.2-1-1.6-1.9
			c-0.5-1.3-0.5-3.2,0.4-4.4c0,0,0,0,0-0.1c-0.2-1.7-0.7-6.1,2-9c1.6-1.7,3.9-2.6,7-2.6c3.1,0,5.4,0.9,7,2.6c2.6,2.9,2.1,7.3,2,9
			c0,0,0,0,0,0.1c1,1.2,0.9,3,0.4,4.4c-0.3,0.9-0.9,1.6-1.6,1.9c-0.7,2.8-2.4,5-3.1,5.8c0,0.5,0.1,1.1,0.3,1.3
			c1.9,0.4,6.9,2.4,10.5,5.2c0.1-0.2,0.3-0.3,0.4-0.5c0-0.1,0.1-0.1,0.1-0.2c3-3.7,4.6-8.2,4.5-13c0-0.1,0-0.2,0-0.3
			C45.5,24,45.5,23.4,45.4,22.8z"/>
	</g>
	<g>
		<path class="st1" d="M29.9,33.3c-0.1-0.2-0.2-0.8-0.3-1.3c0.7-0.8,2.5-3,3.1-5.8c0.7-0.3,1.2-1,1.6-1.9c0.5-1.3,0.5-3.2-0.4-4.4
			c0,0,0,0,0-0.1c0.2-1.7,0.7-6.1-2-9c-1.6-1.7-3.9-2.6-7-2.6c-3.1,0-5.4,0.9-7,2.6c-2.6,2.9-2.1,7.3-2,9c0,0,0,0,0,0.1
			c-1,1.2-0.9,3-0.4,4.4c0.3,0.9,0.9,1.6,1.6,1.9c0.7,2.8,2.4,5,3.1,5.8c0,0.5-0.1,1.1-0.3,1.3c-2,0.4-7.4,2.6-11,5.6
			c0,0,0.1,0.1,0.1,0.1c0.3,0.4,0.6,0.7,0.9,1c0.1,0.1,0.2,0.2,0.3,0.3c0.7-0.6,1.6-1.2,2.5-1.8c3-1.9,6.4-3.2,7.7-3.4
			c1.6-0.2,1.8-2.6,1.8-3.6l0-0.4l-0.3-0.3c0,0-2.5-2.5-3-5.7l-0.1-0.8h-0.8c-0.1,0-0.5-0.4-0.7-1.1c-0.2-0.9-0.1-1.9,0.3-2.2
			l0.4-0.3l0-0.5c0-0.1,0-0.3-0.1-0.6c-0.2-1.6-0.6-5.2,1.5-7.5c1.2-1.3,3-1.9,5.5-1.9c2.5,0,4.3,0.7,5.5,1.9c2,2.2,1.6,5.9,1.5,7.5
			c0,0.3,0,0.5-0.1,0.6l0,0.5l0.4,0.3c0.4,0.4,0.6,1.3,0.3,2.2c-0.2,0.8-0.5,1.1-0.7,1.1h-0.8l-0.1,0.8c-0.5,3.2-3,5.7-3,5.7
			l-0.3,0.3l0,0.4c0,1,0.2,3.4,1.8,3.6c1.3,0.2,4.7,1.5,7.7,3.4c1,0.6,1.8,1.2,2.5,1.8c0,0,0.1-0.1,0.1-0.1c0.4-0.4,0.7-0.8,1.1-1.2
			c0,0,0.1-0.1,0.1-0.1C37.3,35.8,31.9,33.7,29.9,33.3z"/>
	</g>
	<path class="st2" d="M47,24.8L47,24.8c0-0.7,0-1.4-0.1-2c0-0.1,0-0.1,0-0.2c-0.1-0.6-0.2-1.2-0.3-1.9c0-0.1,0-0.2-0.1-0.3
		c-0.1-0.5-0.3-1.1-0.4-1.6c-0.1-0.2-0.1-0.4-0.2-0.6c-0.1-0.5-0.3-0.9-0.5-1.3c-0.1-0.3-0.2-0.6-0.4-0.9c-0.2-0.3-0.3-0.7-0.5-1
		c-0.2-0.3-0.3-0.7-0.5-1c-0.2-0.3-0.3-0.6-0.5-0.9c-0.2-0.3-0.4-0.6-0.6-0.9c-0.2-0.3-0.4-0.6-0.6-0.9c-0.2-0.3-0.4-0.5-0.6-0.8
		c-0.3-0.3-0.5-0.6-0.8-0.9c-0.1-0.1-0.2-0.2-0.3-0.4c0,0-0.1-0.1-0.1-0.1c-0.7-0.7-1.5-1.4-2.4-2c0,0,0,0-0.1,0
		c-0.7-0.5-1.3-0.9-2-1.3c-0.2-0.1-0.5-0.3-0.8-0.4c-0.1,0-0.2-0.1-0.2-0.1c-0.3-0.2-0.6-0.3-0.9-0.5c0,0-0.1,0-0.1,0
		c-2.3-1-4.8-1.7-7.4-1.9c0,0-0.1,0-0.1,0c-0.4,0-0.8,0-1.2,0c-0.1,0-0.1,0-0.2,0c-0.1,0-0.1,0-0.2,0c0,0-0.1,0-0.1,0
		c-0.1,0-0.2,0-0.3,0c-0.6,0-1.2,0-1.7,0.1c-0.1,0-0.1,0-0.2,0c-0.4,0-0.9,0.1-1.3,0.2l0,0c-4.5,0.8-8.7,2.9-12,6.2c0,0,0,0,0,0l0,0
		C9.1,9.7,8.9,10,8.7,10.2c-0.3,0.3-0.6,0.6-0.8,0.9c-0.1,0.2-0.3,0.4-0.4,0.5c-0.3,0.4-0.6,0.8-0.9,1.3c0,0.1-0.1,0.1-0.1,0.2
		c-2.3,3.5-3.5,7.7-3.4,11.9c0,3.6,0.9,7,2.5,10.1c0,0,0,0.1,0,0.1c0.3,0.5,0.6,1,0.9,1.5c0.1,0.1,0.1,0.2,0.2,0.4
		c0.3,0.4,0.6,0.8,0.9,1.2C7.7,38.6,7.8,38.8,8,39c0.3,0.4,0.6,0.7,1,1.1c0.2,0.2,0.3,0.4,0.5,0.6c0,0,0.1,0.1,0.1,0.1c0,0,0,0,0,0
		c0,0,0,0,0,0c0.5,0.5,1.1,1,1.6,1.5c0,0,0.1,0,0.1,0.1c0.5,0.4,1.1,0.8,1.7,1.2c0.1,0.1,0.2,0.1,0.3,0.2c0.5,0.3,1,0.6,1.5,0.9
		c0.2,0.1,0.3,0.1,0.5,0.2c0.5,0.2,1,0.5,1.5,0.7c0.2,0.1,0.4,0.1,0.6,0.2c0.5,0.2,1,0.4,1.4,0.5c0.2,0.1,0.5,0.1,0.7,0.2
		c0.5,0.1,0.9,0.2,1.4,0.3c0.3,0,0.5,0.1,0.8,0.1c0.5,0.1,0.9,0.2,1.4,0.2c0.3,0,0.6,0,0.8,0c0.4,0,0.8,0.1,1.3,0.1c0,0,0.1,0,0.1,0
		c0.6,0,1.3,0,1.9-0.1c0.2,0,0.3,0,0.5,0c0.6-0.1,1.1-0.1,1.7-0.3c0.3,0,0.5-0.1,0.8-0.2c0.3-0.1,0.6-0.2,0.9-0.2
		c0.5-0.1,1-0.3,1.5-0.5c0.2-0.1,0.4-0.1,0.6-0.2c1.1-0.4,2.1-0.9,3.1-1.5c0.2-0.1,0.4-0.2,0.6-0.4c0.4-0.2,0.8-0.5,1.1-0.8
		c0.3-0.2,0.6-0.5,0.9-0.7c0.2-0.1,0.4-0.3,0.5-0.4c0.4-0.4,0.9-0.8,1.3-1.2c0,0,0.1-0.1,0.1-0.1c0.1-0.1,0.1-0.1,0.2-0.2
		c0.4-0.4,0.8-0.9,1.2-1.3c0-0.1,0.1-0.1,0.1-0.2c0.3-0.3,0.5-0.7,0.8-1l0,0C45.6,34,47.1,29.6,47,24.8C47.1,24.9,47,24.9,47,24.8z
		 M22.8,4.6c0.1,0,0.1,0,0.2,0c0.5-0.1,1.1-0.1,1.6-0.1c0.2,0,0.4,0,0.5,0c0.6,0,1.1,0,1.7,0.1c0.2,0,0.4,0,0.6,0.1
		c0.5,0.1,1,0.1,1.5,0.2c0.2,0,0.5,0.1,0.7,0.2c0.4,0.1,0.7,0.2,1,0.3c0.3,0.1,0.5,0.1,0.8,0.2c0.4,0.1,0.9,0.3,1.3,0.5
		C32.8,6,33,6.1,33.2,6.2c0.5,0.2,1,0.5,1.5,0.7c0.1,0,0.1,0.1,0.2,0.1C40,9.8,43.8,14.7,45,20.6c0,0.1,0,0.1,0.1,0.2
		c0.1,0.5,0.2,1.1,0.3,1.6c0,0.1,0.1,0.3,0.1,0.4c0.1,0.6,0.1,1.2,0.1,1.8c0,0.1,0,0.2,0,0.3c0,4.8-1.6,9.3-4.5,13
		c0,0.1-0.1,0.1-0.1,0.2c-0.3,0.4-0.7,0.8-1.1,1.2c-0.1,0.1-0.2,0.2-0.3,0.3c-0.4,0.4-0.8,0.7-1.2,1.1c-0.2,0.1-0.3,0.3-0.5,0.4
		c-0.3,0.2-0.5,0.4-0.8,0.6c-0.4,0.3-0.7,0.5-1.1,0.7c-0.2,0.1-0.3,0.2-0.5,0.3c-0.9,0.5-1.9,1-2.9,1.4c-0.2,0.1-0.3,0.1-0.5,0.2
		c-0.5,0.2-0.9,0.3-1.4,0.5c-0.3,0.1-0.6,0.2-0.9,0.2c-0.2,0.1-0.5,0.1-0.7,0.2c-0.5,0.1-1,0.2-1.6,0.2c-0.1,0-0.3,0-0.4,0
		c-0.6,0.1-1.2,0.1-1.8,0.1c-0.4,0-0.9,0-1.3-0.1c-0.3,0-0.5,0-0.8,0c-0.4,0-0.8-0.1-1.2-0.2c-0.3,0-0.5-0.1-0.8-0.1
		c-0.4-0.1-0.8-0.2-1.2-0.3c-0.2-0.1-0.5-0.1-0.7-0.2c-0.4-0.1-0.8-0.3-1.2-0.4c-0.2-0.1-0.5-0.1-0.7-0.2c-0.4-0.2-0.8-0.4-1.3-0.6
		c-0.2-0.1-0.4-0.2-0.5-0.3c-0.5-0.3-0.9-0.5-1.4-0.8c-0.1-0.1-0.2-0.1-0.3-0.2c-1.1-0.7-2.2-1.6-3.1-2.6c0,0,0,0,0,0
		c-0.2-0.2-0.3-0.4-0.5-0.5c-0.3-0.3-0.6-0.7-0.9-1c-0.1-0.2-0.2-0.3-0.4-0.5c-0.3-0.4-0.6-0.8-0.9-1.2c-0.1-0.1-0.1-0.2-0.2-0.3
		c-0.3-0.5-0.6-1-0.9-1.5c0,0,0,0,0,0C3.4,28.1,3.7,20.2,7.7,14c0-0.1,0.1-0.1,0.1-0.2C8,13.4,8.3,13,8.6,12.6
		c0.1-0.2,0.2-0.3,0.4-0.5c0.2-0.3,0.5-0.6,0.7-0.8c0.2-0.2,0.4-0.5,0.6-0.7C13.8,7.2,18.1,5.1,22.8,4.6z"/>
</g>
</svg>
