<?xml version="1.0" encoding="utf-8"?>
<!-- Generator: Adobe Illustrator 22.0.1, SVG Export Plug-In . SVG Version: 6.00 Build 0)  -->
<svg version="1.1" id="Calque_1" xmlns="http://www.w3.org/2000/svg" xmlns:xlink="http://www.w3.org/1999/xlink" x="0px" y="0px"
	 viewBox="0 0 50 50" style="enable-background:new 0 0 50 50;" xml:space="preserve">
<style type="text/css">
	.st0{fill:#6D605F;}
	.st1{fill:#CD3E2E;}
</style>
<g>
	<path class="st0" d="M25,43.3l-0.8-1C23.6,41.7,10,24.7,10,16.8c0-8.3,6.7-15,15-15c8.3,0,15,6.7,15,15c0,8-13.6,24.9-14.2,25.6
		L25,43.3z M25,3.8c-7.2,0-13,5.8-13,13c0,6.3,10.1,19.7,13,23.4c2.9-3.7,13-17.1,13-23.4C38,9.6,32.2,3.8,25,3.8z"/>
	<path class="st1" d="M25,24.2c-4.1,0-7.5-3.4-7.5-7.5c0-4.1,3.4-7.5,7.5-7.5c4.1,0,7.5,3.4,7.5,7.5C32.5,20.9,29.1,24.2,25,24.2z"
		/>
	<path class="st1" d="M32.3,37.9v1c4.4,0.9,7.2,2.4,7.2,3.8c0,2.1-6,4.5-14.5,4.5s-14.5-2.4-14.5-4.5c0-1.4,2.7-3,7.2-3.8v-1
		c-4.6,0.8-8.2,2.5-8.2,4.9c0,3.6,8,5.5,15.5,5.5s15.5-1.9,15.5-5.5C40.5,40.4,36.9,38.7,32.3,37.9z"/>
</g>
</svg>
