<?xml version="1.0" encoding="utf-8"?>
<!-- Generator: Adobe Illustrator 22.0.1, SVG Export Plug-In . SVG Version: 6.00 Build 0)  -->
<svg version="1.1" id="Calque_1" xmlns="http://www.w3.org/2000/svg" xmlns:xlink="http://www.w3.org/1999/xlink" x="0px" y="0px"
	 viewBox="0 0 50 50" style="enable-background:new 0 0 50 50;" xml:space="preserve">
<style type="text/css">
	.st0{fill:#6D605F;}
	.st1{fill:#CD3E2E;}
</style>
<g>
	<g>
		<g>
			<path class="st0" d="M14.2,6.4h-1.5V4.3c0-0.5-0.4-1-1-1c-0.5,0-1,0.4-1,1v2.1H9.2V4.3c0-1.4,1.1-2.5,2.5-2.5s2.5,1.1,2.5,2.5
				V6.4z"/>
		</g>
		<g>
			<g>
				<path class="st0" d="M40.8,6.4h-1.5V4.3c0-0.5-0.4-1-1-1c-0.5,0-1,0.4-1,1v2.1h-1.5V4.3c0-1.4,1.1-2.5,2.5-2.5
					c1.4,0,2.5,1.1,2.5,2.5V6.4z"/>
			</g>
			<g>
				<path class="st0" d="M44.2,48.2H5.8c-1.4,0-2.5-1.1-2.5-2.5V8.2c0-1.4,1.1-2.5,2.5-2.5h4.9v3.5c0,0.5,0.4,1,1,1c0.5,0,1-0.4,1-1
					V5.7h24.7v3.5c0,0.5,0.4,1,1,1c0.5,0,1-0.4,1-1V5.7h4.9c1.4,0,2.5,1.1,2.5,2.5v37.4C46.8,47.1,45.6,48.2,44.2,48.2z M5.8,7.2
					c-0.6,0-1,0.5-1,1v37.4c0,0.6,0.5,1,1,1h38.4c0.6,0,1-0.5,1-1V8.2c0-0.6-0.5-1-1-1h-3.4v2c0,1.4-1.1,2.5-2.5,2.5
					c-1.4,0-2.5-1.1-2.5-2.5v-2H14.2v2c0,1.4-1.1,2.5-2.5,2.5s-2.5-1.1-2.5-2.5v-2H5.8z"/>
			</g>
			<g>
				<path class="st0" d="M38.3,11.7c-1.4,0-2.5-1.1-2.5-2.5V6.4h1.5v2.8c0,0.5,0.4,1,1,1c0.5,0,1-0.4,1-1V6.4h1.5v2.8
					C40.8,10.6,39.7,11.7,38.3,11.7z"/>
			</g>
		</g>
	</g>
	<g>
		<rect x="4" y="15.6" class="st0" width="42" height="1.5"/>
	</g>
	<g>
		<path class="st1" d="M13.3,26.6h-1c-0.7,0-1.3-0.6-1.3-1.3v0c0-0.7,0.6-1.3,1.3-1.3h1c0.7,0,1.3,0.6,1.3,1.3v0
			C14.6,26,14,26.6,13.3,26.6z"/>
	</g>
	<g>
		<path class="st1" d="M21.7,26.6h-1c-0.7,0-1.3-0.6-1.3-1.3v0c0-0.7,0.6-1.3,1.3-1.3h1c0.7,0,1.3,0.6,1.3,1.3v0
			C22.9,26,22.4,26.6,21.7,26.6z"/>
	</g>
	<g>
		<path class="st1" d="M30,26.6h-1c-0.7,0-1.3-0.6-1.3-1.3v0c0-0.7,0.6-1.3,1.3-1.3h1c0.7,0,1.3,0.6,1.3,1.3v0
			C31.3,26,30.7,26.6,30,26.6z"/>
	</g>
	<g>
		<path class="st1" d="M38.4,26.6h-1c-0.7,0-1.3-0.6-1.3-1.3v0c0-0.7,0.6-1.3,1.3-1.3h1c0.7,0,1.3,0.6,1.3,1.3v0
			C39.7,26,39.1,26.6,38.4,26.6z"/>
	</g>
	<g>
		<path class="st1" d="M13.3,32.6h-1c-0.7,0-1.3-0.6-1.3-1.3v0c0-0.7,0.6-1.3,1.3-1.3h1c0.7,0,1.3,0.6,1.3,1.3v0
			C14.6,32,14,32.6,13.3,32.6z"/>
	</g>
	<g>
		<path class="st1" d="M21.7,32.6h-1c-0.7,0-1.3-0.6-1.3-1.3v0c0-0.7,0.6-1.3,1.3-1.3h1c0.7,0,1.3,0.6,1.3,1.3v0
			C22.9,32,22.4,32.6,21.7,32.6z"/>
	</g>
	<g>
		<path class="st1" d="M30,32.6h-1c-0.7,0-1.3-0.6-1.3-1.3v0c0-0.7,0.6-1.3,1.3-1.3h1c0.7,0,1.3,0.6,1.3,1.3v0
			C31.3,32,30.7,32.6,30,32.6z"/>
	</g>
	<g>
		<path class="st1" d="M38.4,32.6h-1c-0.7,0-1.3-0.6-1.3-1.3v0c0-0.7,0.6-1.3,1.3-1.3h1c0.7,0,1.3,0.6,1.3,1.3v0
			C39.7,32,39.1,32.6,38.4,32.6z"/>
	</g>
	<g>
		<path class="st1" d="M13.3,38.6h-1c-0.7,0-1.3-0.6-1.3-1.3v0c0-0.7,0.6-1.3,1.3-1.3h1c0.7,0,1.3,0.6,1.3,1.3v0
			C14.6,38,14,38.6,13.3,38.6z"/>
	</g>
	<g>
		<path class="st1" d="M21.7,38.6h-1c-0.7,0-1.3-0.6-1.3-1.3v0c0-0.7,0.6-1.3,1.3-1.3h1c0.7,0,1.3,0.6,1.3,1.3v0
			C22.9,38,22.4,38.6,21.7,38.6z"/>
	</g>
	<g>
		<path class="st1" d="M30,38.6h-1c-0.7,0-1.3-0.6-1.3-1.3v0c0-0.7,0.6-1.3,1.3-1.3h1c0.7,0,1.3,0.6,1.3,1.3v0
			C31.3,38,30.7,38.6,30,38.6z"/>
	</g>
</g>
</svg>
