<?xml version="1.0" encoding="utf-8"?>
<!-- Generator: Adobe Illustrator 22.0.1, SVG Export Plug-In . SVG Version: 6.00 Build 0)  -->
<svg version="1.1" id="Calque_1" xmlns="http://www.w3.org/2000/svg" xmlns:xlink="http://www.w3.org/1999/xlink" x="0px" y="0px"
	 viewBox="0 0 50 50" style="enable-background:new 0 0 50 50;" xml:space="preserve">
<style type="text/css">
	.st0{fill:#CD3E2E;}
	.st1{fill-rule:evenodd;clip-rule:evenodd;fill:#CD3E2E;}
	.st2{fill-rule:evenodd;clip-rule:evenodd;fill:#6D605F;}
</style>
<g>
	<path class="st0" d="M32,46.8H18c-2.8,0-5-2.2-5-5l-3.1-32h30.2L37,41.8C37,44.5,34.8,46.8,32,46.8z M12.1,11.8L15,41.7
		c0,1.8,1.4,3.1,3,3.1h14c1.7,0,3-1.3,3-3l2.9-30H12.1z"/>
	<path class="st0" d="M34.5,11.2h-19V7.8c0-2.5,2-4.5,4.5-4.5h10c2.5,0,4.5,2,4.5,4.5V11.2z M16.5,10.2h17V7.8
		c0-1.9-1.6-3.5-3.5-3.5H20c-1.9,0-3.5,1.6-3.5,3.5V10.2z"/>
	<path class="st1" d="M7,9.8h36c0.6,0,1,0.4,1,1c0,0.6-0.4,1-1,1H7c-0.6,0-1-0.4-1-1C6,10.2,6.4,9.8,7,9.8z"/>
	<path class="st2" d="M19,16.8c0.6,0,1,0.4,1,1l1,21c0,0.6-0.4,1-1,1c-0.6,0-1-0.4-1-1l-1-21C18,17.2,18.4,16.8,19,16.8z"/>
	<path class="st2" d="M25,16.8c0.6,0,1,0.4,1,1v21c0,0.6-0.4,1-1,1c-0.6,0-1-0.4-1-1v-21C24,17.2,24.4,16.8,25,16.8z"/>
	<path class="st2" d="M31,16.8c0.6,0,1,0.4,1,1l-1,21c0,0.6-0.4,1-1,1c-0.6,0-1-0.4-1-1l1-21C30,17.2,30.4,16.8,31,16.8z"/>
</g>
</svg>
