<?xml version="1.0" encoding="utf-8"?>
<!-- Generator: Adobe Illustrator 22.0.1, SVG Export Plug-In . SVG Version: 6.00 Build 0)  -->
<svg version="1.1" id="Calque_1" xmlns="http://www.w3.org/2000/svg" xmlns:xlink="http://www.w3.org/1999/xlink" x="0px" y="0px"
	 viewBox="0 0 50 50" style="enable-background:new 0 0 50 50;" xml:space="preserve">
<style type="text/css">
	.st0{fill:#6D605F;}
	.st1{fill:#CD3E2E;}
</style>
<g>
	<g>
		<path class="st0" d="M23.4,47.1c-5.8,0-11.3-2.3-15.5-6.4C3.7,36.5,1.4,31,1.3,25.1c0-5.9,2.2-11.4,6.4-15.6
			c4.1-4.2,9.7-6.5,15.6-6.5c0,0,0.1,0,0.1,0c12.1,0,22,9.8,22,21.9l-1.5,0C43.8,13.6,34.6,4.5,23.4,4.5c0,0-0.1,0-0.1,0
			c-5.5,0-10.6,2.2-14.5,6.1c-3.9,3.9-6,9.1-5.9,14.6c0,5.5,2.2,10.6,6.1,14.5c3.9,3.8,9,5.9,14.4,5.9c0,0,0.1,0,0.1,0
			c6.6,0,12.8-3.3,16.6-8.6l1.2,0.9c-4.1,5.8-10.8,9.2-17.8,9.3C23.5,47.1,23.4,47.1,23.4,47.1z"/>
	</g>
	<g>
		<polygon class="st0" points="38.8,19.5 43.8,28 48.7,19.4 		"/>
	</g>
	<g>
		<g>
			<path class="st1" d="M17.4,24.4l0-4.1c0-3.3,2.6-6,5.9-6c3.3,0,6,2.7,6,5.9l0,4.1L17.4,24.4z M23.4,15.8c-2.5,0-4.5,2-4.4,4.5
				l0,2.6l8.9-0.1l0-2.6C27.8,17.8,25.8,15.8,23.4,15.8z"/>
		</g>
		<g>
			<path class="st1" d="M16,35.8L16,35.8c-0.6,0-1.1-0.5-1.1-1.1l-0.1-10.7c0-0.6,0.5-1.1,1.1-1.1l14.8-0.1c0.6,0,1.1,0.5,1.1,1.1
				l0.1,10.7c0,0.3-0.1,0.6-0.3,0.8c-0.2,0.2-0.5,0.3-0.8,0.3L16,35.8z"/>
		</g>
	</g>
</g>
</svg>
