<?xml version="1.0" encoding="utf-8"?>
<!-- Generator: Adobe Illustrator 22.0.1, SVG Export Plug-In . SVG Version: 6.00 Build 0)  -->
<svg version="1.1" id="Calque_1" xmlns="http://www.w3.org/2000/svg" xmlns:xlink="http://www.w3.org/1999/xlink" x="0px" y="0px"
	 viewBox="0 0 50 50" style="enable-background:new 0 0 50 50;" xml:space="preserve">
<style type="text/css">
	.st0{opacity:0.75;}
	.st1{fill:#FFFFFF;}
</style>
<g class="st0">
	<path class="st1" d="M25,43.3l0.8-1C26.4,41.7,40,24.7,40,16.8c0-8.3-6.7-15-15-15s-15,6.7-15,15c0,8,13.6,24.9,14.2,25.6L25,43.3z
		 M25,3.8c7.2,0,13,5.8,13,13c0,6.3-10.1,19.7-13,23.4C22.1,36.4,12,23,12,16.8C12,9.6,17.8,3.8,25,3.8z"/>
	<circle class="st1" cx="25" cy="16.8" r="7.5"/>
	<path class="st1" d="M32.3,37.9v1c4.4,0.9,7.2,2.4,7.2,3.8c0,2.1-6,4.5-14.5,4.5s-14.5-2.4-14.5-4.5c0-1.4,2.7-3,7.2-3.8v-1
		c-4.6,0.8-8.2,2.5-8.2,4.9c0,3.6,8,5.5,15.5,5.5s15.5-1.9,15.5-5.5C40.5,40.4,36.9,38.7,32.3,37.9z"/>
</g>
</svg>
