<?xml version="1.0" encoding="utf-8"?>
<!-- Generator: Adobe Illustrator 22.0.1, SVG Export Plug-In . SVG Version: 6.00 Build 0)  -->
<svg version="1.1" id="Calque_1" xmlns="http://www.w3.org/2000/svg" xmlns:xlink="http://www.w3.org/1999/xlink" x="0px" y="0px"
	 viewBox="0 0 50 50" style="enable-background:new 0 0 50 50;" xml:space="preserve">
<style type="text/css">
	.st0{fill:#CD3E2E;}
	.st1{fill:none;}
	.st2{fill:#6D605F;}
</style>
<g>
	<path class="st0" d="M4.6,38.1H4.1v-6h0.5c4.6,0,7.5-1.1,9.6-3.6l0.5-0.6l0.3,0.7c0.7,1.4,1.5,3,2.6,4.5l0.3,0.4l-0.3,0.3
		c-0.2,0.2-0.4,0.4-0.6,0.6C13.9,36.8,9.9,38.1,4.6,38.1z M5.1,33.1v4c4.8-0.1,8.5-1.3,11.2-3.6c0.1-0.1,0.2-0.2,0.3-0.2
		c-0.8-1.2-1.5-2.4-2.1-3.6C12.3,31.9,9.4,33,5.1,33.1z"/>
	<g>
		<polygon class="st1" points="36.3,25 46.4,14.9 36.3,25 		"/>
		<path class="st1" d="M35.9,33.6h-1c-9.1,0-11.3-4.3-13.8-9.2c-1.3-2.6-2.7-5.3-5.1-7.4c-2.6-2.2-6-3.4-10.4-3.5v3
			c8.3,0.3,10.4,4.5,12.8,9.2c1.3,2.6,2.7,5.3,5.1,7.4c2.8,2.4,6.5,3.5,11.4,3.5h1v6.1l7.7-7.7l-7.7-7.7V33.6z"/>
		<path class="st1" d="M35.9,22.6l7.7-7.7l-7.7-7.7v6.1h-1c-4.9,0-8.6,1.1-11.3,3.5c0.6,0.9,1.1,1.8,1.6,2.7
			c2.3-2.1,5.4-3.1,9.7-3.1h1V22.6z"/>
		<polygon class="st1" points="36.3,25 46.4,35.1 36.3,25 		"/>
		<rect x="36.3" y="25" transform="matrix(0.7071 -0.7071 0.7071 0.7071 -7.0511 32.9889)" class="st1" width="0" height="0"/>
		<polygon class="st0" points="36.3,25 36.3,25 33.9,22.6 33.9,27.4 36.3,25 		"/>
		<path class="st2" d="M33.9,27.4v4.1c-7.1-0.3-8.7-3.6-11-8.1c-1.4-2.8-2.8-5.7-5.6-8c-3.1-2.7-7.3-4-12.7-4h-1v7h1
			c7.9,0,9.6,3.4,12,8.1c1.4,2.8,2.8,5.7,5.6,8c2.9,2.5,6.8,3.8,11.7,4v9l12.5-12.5L36.3,25L33.9,27.4z M35.9,42.8v-6.1h-1
			c-4.9,0-8.6-1.2-11.4-3.5c-2.4-2.1-3.8-4.8-5.1-7.4c-2.4-4.8-4.5-8.9-12.8-9.2v-3c4.4,0.1,7.8,1.3,10.4,3.5
			c2.4,2.1,3.8,4.8,5.1,7.4c2.5,5,4.6,9.2,13.8,9.2h1v-6.1l7.7,7.7L35.9,42.8z"/>
		<path class="st0" d="M46.4,14.9L33.9,2.4v9c-4.9,0.2-8.7,1.5-11.7,4c-0.2,0.2-0.4,0.4-0.6,0.6l-0.6,0.6l0.5,0.7
			c1.1,1.5,1.9,3,2.6,4.4l0.7,1.4l1-1.2c1.3-1.6,3.3-3.2,8.2-3.4v4.1l2.4,2.4L46.4,14.9z M25.1,19.5c-0.5-0.9-1-1.8-1.6-2.7
			c2.8-2.3,6.5-3.5,11.3-3.5h1V7.2l7.7,7.7l-7.7,7.7v-6.1h-1C30.5,16.4,27.4,17.4,25.1,19.5z"/>
	</g>
</g>
</svg>
