<?xml version="1.0" encoding="utf-8"?>
<!-- Generator: Adobe Illustrator 22.0.1, SVG Export Plug-In . SVG Version: 6.00 Build 0)  -->
<svg version="1.1" id="Calque_1" xmlns="http://www.w3.org/2000/svg" xmlns:xlink="http://www.w3.org/1999/xlink" x="0px" y="0px"
	 viewBox="0 0 50 50" style="enable-background:new 0 0 50 50;" xml:space="preserve">
<style type="text/css">
	.st0{opacity:0.75;fill:#FFFFFF;enable-background:new    ;}
</style>
<path class="st0" d="M47,24.8L47,24.8c0-0.7,0-1.4-0.1-2c0-0.1,0-0.1,0-0.2c-0.1-0.6-0.2-1.2-0.3-1.9c0-0.1,0-0.2-0.1-0.3
	c-0.1-0.5-0.3-1.1-0.4-1.6c-0.1-0.2-0.1-0.4-0.2-0.6c-0.1-0.5-0.3-0.9-0.5-1.3c-0.1-0.3-0.2-0.6-0.4-0.9c-0.2-0.3-0.3-0.7-0.5-1
	s-0.3-0.7-0.5-1s-0.3-0.6-0.5-0.9c-0.2-0.3-0.4-0.6-0.6-0.9c-0.2-0.3-0.4-0.6-0.6-0.9c-0.2-0.3-0.4-0.5-0.6-0.8
	c-0.3-0.3-0.5-0.6-0.8-0.9c-0.1-0.1-0.2-0.2-0.3-0.4l-0.1-0.1c-0.7-0.7-1.5-1.4-2.4-2c0,0,0,0-0.1,0c-0.7-0.5-1.3-0.9-2-1.3
	c-0.2-0.1-0.5-0.3-0.8-0.4c-0.1,0-0.2-0.1-0.2-0.1c-0.3-0.2-0.6-0.3-0.9-0.5H34c-2.3-1-4.8-1.7-7.4-1.9h-0.1c-0.4,0-0.8,0-1.2,0
	c-0.1,0-0.1,0-0.2,0s-0.1,0-0.2,0h-0.1c-0.1,0-0.2,0-0.3,0c-0.6,0-1.2,0-1.7,0.1c-0.1,0-0.1,0-0.2,0c-0.4,0-0.9,0.1-1.3,0.2l0,0
	c-4.5,0.8-8.7,2.9-12,6.2l0,0l0,0C9.1,9.7,8.9,10,8.7,10.2c-0.3,0.3-0.6,0.6-0.8,0.9c-0.1,0.2-0.3,0.4-0.4,0.5
	c-0.3,0.4-0.6,0.8-0.9,1.3c0,0.1-0.1,0.1-0.1,0.2C4.2,16.6,3,20.8,3.1,25c0,3.6,0.9,7,2.5,10.1v0.1c0.3,0.5,0.6,1,0.9,1.5
	c0.1,0.1,0.1,0.2,0.2,0.4c0.3,0.4,0.6,0.8,0.9,1.2C7.7,38.6,7.8,38.8,8,39c0.3,0.4,0.6,0.7,1,1.1c0.2,0.2,0.3,0.4,0.5,0.6l0.1,0.1
	l0,0l0,0c0.5,0.5,1.1,1,1.6,1.5c0,0,0.1,0,0.1,0.1c0.5,0.4,1.1,0.8,1.7,1.2c0.1,0.1,0.2,0.1,0.3,0.2c0.5,0.3,1,0.6,1.5,0.9
	c0.2,0.1,0.3,0.1,0.5,0.2c0.5,0.2,1,0.5,1.5,0.7c0.2,0.1,0.4,0.1,0.6,0.2c0.5,0.2,1,0.4,1.4,0.5c0.2,0.1,0.5,0.1,0.7,0.2
	c0.5,0.1,0.9,0.2,1.4,0.3c0.3,0,0.5,0.1,0.8,0.1c0.5,0.1,0.9,0.2,1.4,0.2c0.3,0,0.6,0,0.8,0c0.4,0,0.8,0.1,1.3,0.1h0.1
	c0.6,0,1.3,0,1.9-0.1c0.2,0,0.3,0,0.5,0c0.6-0.1,1.1-0.1,1.7-0.3c0.3,0,0.5-0.1,0.8-0.2c0.3-0.1,0.6-0.2,0.9-0.2
	c0.5-0.1,1-0.3,1.5-0.5c0.2-0.1,0.4-0.1,0.6-0.2c1.1-0.4,2.1-0.9,3.1-1.5c0.2-0.1,0.4-0.2,0.6-0.4c0.4-0.2,0.8-0.5,1.1-0.8
	c0.3-0.2,0.6-0.5,0.9-0.7c0.2-0.1,0.4-0.3,0.5-0.4c0.4-0.4,0.9-0.8,1.3-1.2l0.1-0.1c0.1-0.1,0.1-0.1,0.2-0.2
	c0.4-0.4,0.8-0.9,1.2-1.3c0-0.1,0.1-0.1,0.1-0.2c0.3-0.3,0.5-0.7,0.8-1l0,0C45.6,34,47.1,29.6,47,24.8C47.1,24.9,47,24.9,47,24.8z
	 M38.3,40.6c-0.2,0.1-0.3,0.3-0.5,0.4c-0.3,0.2-0.5,0.4-0.8,0.6c-0.4,0.3-0.7,0.5-1.1,0.7c-0.2,0.1-0.3,0.2-0.5,0.3
	c-0.9,0.5-1.9,1-2.9,1.4c-0.2,0.1-0.3,0.1-0.5,0.2c-0.5,0.2-0.9,0.3-1.4,0.5c-0.3,0.1-0.6,0.2-0.9,0.2C29.5,45,29.2,45,29,45.1
	c-0.5,0.1-1,0.2-1.6,0.2c-0.1,0-0.3,0-0.4,0c-0.6,0.1-1.2,0.1-1.8,0.1c-0.4,0-0.9,0-1.3-0.1c-0.3,0-0.5,0-0.8,0
	c-0.4,0-0.8-0.1-1.2-0.2c-0.3,0-0.5-0.1-0.8-0.1c-0.4-0.1-0.8-0.2-1.2-0.3c-0.2-0.1-0.5-0.1-0.7-0.2c-0.4-0.1-0.8-0.3-1.2-0.4
	c-0.2-0.1-0.5-0.1-0.7-0.2c-0.4-0.2-0.8-0.4-1.3-0.6c-0.2-0.1-0.4-0.2-0.5-0.3c-0.5-0.3-0.9-0.5-1.4-0.8c-0.1-0.1-0.2-0.1-0.3-0.2
	c-1-0.6-1.9-1.4-2.8-2.2c0.6-0.5,1.2-0.9,2-1.4c3-1.9,6.4-3.2,7.7-3.4c1.6-0.2,1.8-2.6,1.8-3.6V31l-0.3-0.3c0,0-2.5-2.5-3-5.7
	l-0.1-0.8h-0.8c-0.1,0-0.5-0.4-0.7-1.1c-0.2-0.9-0.1-1.9,0.3-2.2l0.4-0.3v-0.5c0-0.1,0-0.3-0.1-0.6c-0.2-1.6-0.6-5.2,1.5-7.5
	c1.2-1.3,3-1.9,5.5-1.9s4.3,0.7,5.5,1.9c2,2.2,1.6,5.9,1.5,7.5c0,0.3,0,0.5-0.1,0.6v0.5l0.4,0.3c0.4,0.4,0.6,1.3,0.3,2.2
	c-0.2,0.8-0.5,1.1-0.7,1.1h-0.8L31.2,25c-0.5,3.2-3,5.7-3,5.7L27.9,31v0.4c0,1,0.2,3.4,1.8,3.6c1.3,0.2,4.7,1.5,7.7,3.4
	c0.7,0.5,1.4,0.9,2,1.4C38.8,40.2,38.6,40.4,38.3,40.6z M41,37.9c0,0.1-0.1,0.1-0.1,0.2c-0.1,0.2-0.3,0.3-0.4,0.5
	c-3.6-2.9-8.6-4.9-10.5-5.2c-0.1-0.2-0.2-0.8-0.3-1.3c0.7-0.8,2.5-3,3.1-5.8c0.7-0.3,1.2-1,1.6-1.9c0.5-1.3,0.5-3.2-0.4-4.4
	c0,0,0,0,0-0.1c0.2-1.7,0.7-6.1-2-9c-1.6-1.7-3.9-2.6-7-2.6s-5.4,0.9-7,2.6c-2.6,2.9-2.1,7.3-2,9c0,0,0,0,0,0.1
	c-1,1.2-0.9,3-0.4,4.4c0.3,0.9,0.9,1.6,1.6,1.9c0.7,2.8,2.4,5,3.1,5.8c0,0.5-0.1,1.1-0.3,1.3c-1.9,0.4-6.9,2.4-10.5,5.2
	c-0.1-0.2-0.3-0.3-0.4-0.5c-0.1-0.2-0.2-0.3-0.4-0.5c-0.3-0.4-0.6-0.8-0.9-1.2c-0.1-0.1-0.1-0.2-0.2-0.3c-0.3-0.5-0.6-1-0.9-1.5l0,0
	c-3.3-6.5-3-14.4,1-20.6c0-0.1,0.1-0.1,0.1-0.2C8,13.4,8.3,13,8.6,12.6c0.1-0.2,0.2-0.3,0.4-0.5c0.2-0.3,0.5-0.6,0.7-0.8
	s0.4-0.5,0.6-0.7c3.4-3.4,7.7-5.5,12.4-6c0.1,0,0.1,0,0.2,0c0.5-0.1,1.1-0.1,1.6-0.1c0.2,0,0.4,0,0.5,0c0.6,0,1.1,0,1.7,0.1
	c0.2,0,0.4,0,0.6,0.1c0.5,0.1,1,0.1,1.5,0.2c0.2,0,0.5,0.1,0.7,0.2c0.4,0.1,0.7,0.2,1,0.3c0.3,0.1,0.5,0.1,0.8,0.2
	c0.4,0.1,0.9,0.3,1.3,0.5c0.2-0.1,0.4,0,0.6,0.1c0.5,0.2,1,0.5,1.5,0.7c0.1,0,0.1,0.1,0.2,0.1C40,9.8,43.8,14.7,45,20.6
	c0,0.1,0,0.1,0.1,0.2c0.1,0.5,0.2,1.1,0.3,1.6c0,0.1,0.1,0.3,0.1,0.4c0.1,0.6,0.1,1.2,0.1,1.8c0,0.1,0,0.2,0,0.3
	C45.6,29.7,44,34.2,41,37.9z"/>
</svg>
