<?xml version="1.0" encoding="utf-8"?>
<!-- Generator: Adobe Illustrator 22.0.1, SVG Export Plug-In . SVG Version: 6.00 Build 0)  -->
<svg version="1.1" id="Calque_1" xmlns="http://www.w3.org/2000/svg" xmlns:xlink="http://www.w3.org/1999/xlink" x="0px" y="0px"
	 viewBox="0 0 50 50" style="enable-background:new 0 0 50 50;" xml:space="preserve">
<style type="text/css">
	.st0{fill:#6D605F;}
	.st1{fill:#CD3E2E;}
</style>
<g>
	<path class="st0" d="M46.1,19.8h-17l6.2-6.2c-2.7-2.6-6.3-4-10.1-4c-6.1,0-11.7,3.8-13.8,9.6l-0.2,0.5l-5.7-2.1l0.2-0.5
		C8.8,9,16.6,3.6,25.3,3.6c5.4,0,10.5,2,14.4,5.8l6.5-6.5V19.8z M31.5,18.8h13.5V5.3l-5.5,5.5l-0.4-0.4c-3.7-3.7-8.7-5.8-14-5.8
		c-8.1,0-15.4,5-18.4,12.4l3.8,1.4c2.4-5.9,8.2-9.8,14.6-9.8c4.2,0,8.2,1.6,11.1,4.6l0.4,0.4L31.5,18.8z"/>
	<path class="st1" d="M3.9,47.1V28.5h18.7l-6.7,6.7c2.6,2.3,5.9,3.5,9.3,3.5c5.9,0,11.3-3.7,13.3-9.2l0.4-0.9l6.6,2.5l-0.4,0.9
		c-3.1,8.3-11.1,13.8-20,13.8c-5.4,0-10.4-2-14.4-5.6L3.9,47.1z M10.9,37.4l0.7,0.7c3.7,3.7,8.5,5.7,13.7,5.7
		c7.7,0,14.7-4.6,17.7-11.6L40.1,31c-2.6,5.8-8.4,9.6-14.8,9.6c-4.3,0-8.4-1.7-11.5-4.8l-0.7-0.7l4.7-4.7H5.9v11.8L10.9,37.4z"/>
</g>
</svg>
