<?xml version="1.0" encoding="utf-8"?>
<!-- Generator: Adobe Illustrator 22.0.1, SVG Export Plug-In . SVG Version: 6.00 Build 0)  -->
<svg version="1.1" id="Calque_1" xmlns="http://www.w3.org/2000/svg" xmlns:xlink="http://www.w3.org/1999/xlink" x="0px" y="0px"
	 viewBox="0 0 50 50" style="enable-background:new 0 0 50 50;" xml:space="preserve">
<style type="text/css">
	.st0{fill:#FFFFFF;}
</style>
<g>
	<g>
		<g>
			<path class="st0" d="M42,22.3c0-10.7-8.7-19.4-19.4-19.4c-10.7,0-19.4,8.7-19.4,19.4c0,10.7,8.7,19.4,19.4,19.4
				C33.3,41.8,42,33,42,22.3z M22.5,39.9C12.9,39.9,5,32,5,22.3c0-9.7,7.9-17.5,17.5-17.5c9.7,0,17.5,7.9,17.5,17.5
				C40.1,32,32.2,39.9,22.5,39.9z"/>
			<path class="st0" d="M22.5,43.2C11,43.2,1.7,33.8,1.7,22.3C1.7,10.8,11,1.5,22.5,1.5c11.5,0,20.9,9.4,20.9,20.9
				C43.4,33.8,34,43.2,22.5,43.2z M22.5,6.2c-8.9,0-16.1,7.2-16.1,16.1c0,8.9,7.2,16.1,16.1,16.1c8.9,0,16.1-7.2,16.1-16.1
				C38.6,13.4,31.4,6.2,22.5,6.2z"/>
		</g>
		<g>
			
				<rect x="40.3" y="35.1" transform="matrix(0.711 -0.7032 0.7032 0.711 -17.1918 40.9451)" class="st0" width="1.9" height="12.5"/>
			
				<rect x="38.8" y="33.7" transform="matrix(0.7109 -0.7033 0.7033 0.7109 -17.192 40.9555)" class="st0" width="4.7" height="15.4"/>
		</g>
	</g>
</g>
</svg>
